<svg width="45" height="45" viewBox="0 0 45 45" fill="none" xmlns="http://www.w3.org/2000/svg">
<g clip-path="url(#clip0_30_2349)">
<path d="M11.25 32.8507C10.8854 32.8258 10.5702 32.8125 10.3125 32.8125C7.20591 32.8125 4.6875 35.3308 4.6875 38.4375C4.6875 41.5442 7.20591 44.0625 10.3125 44.0625C14.0625 44.0625 28.899 38.1527 32.8125 37.0312V36.0938C30.9051 35.7758 22.9603 34.3798 16.875 33.5143M32.8125 29.0625V20.625M32.8125 29.0625C36.9546 29.0625 40.3125 32.4204 40.3125 36.5625C40.3125 40.7046 36.9546 44.0625 32.8125 44.0625C29.6649 44.0625 26.9702 42.1236 25.8578 39.375M32.8125 29.0625C29.3179 29.0625 26.3814 31.4527 25.5488 34.6875M35.625 15L41.25 9.375M35.625 17.8125H30.0583C27.7582 17.8125 25.6899 16.4122 24.8357 14.2766L22.5 8.4375H20.7866C19.4707 8.4375 18.1965 8.89883 17.1856 9.74124L10.3125 15.4688V15.9375L15.9375 23.4375V23.9062C15.9375 23.9062 14.0624 28.125 14.0625 35.625M18.75 17.8125L24.375 21.5625V22.0312C24.375 22.0312 20.625 24.375 19.6875 27.6562M27.7597 8.4375C27.7597 8.4375 31.1535 7.39305 31.7619 5.10774C32.2326 3.34076 31.1904 1.5245 29.4345 1.05104C27.6786 0.577571 25.8814 1.6283 25.4109 3.39529C24.8023 5.68059 27.2147 8.29054 27.2147 8.29054L27.7597 8.4375Z" stroke="black" stroke-width="2.64538"/>
</g>
<defs>
<clipPath id="clip0_30_2349">
<rect width="45" height="45" fill="white"/>
</clipPath>
</defs>
</svg>
