<svg width="42" height="40" viewBox="0 0 42 40" fill="none" xmlns="http://www.w3.org/2000/svg">
<g clip-path="url(#clip0_30_2364)">
<path d="M6.12519 39.9997V29.1669C6.12519 27.3259 4.55812 25.8334 2.625 25.8334V12.5C2.625 12.5 5.25 10.8332 9.625 10.8332C10.9639 10.8332 12.139 10.9893 13.125 11.206C13.276 11.2391 13.4225 11.2737 13.5645 11.3094M18.3752 40.0002V30.8335H12.25V30.4169L12.3751 30.1665C15.1731 24.5705 16.625 18.4507 16.625 12.2527V11.7052C17.8304 11.2761 19.6203 10.8334 21.875 10.8334C24.1297 10.8334 25.9196 11.276 27.125 11.7051V12.2527C27.125 13.4502 27.1793 14.6449 27.2869 15.8334C27.2998 15.9765 27.3135 16.1196 27.328 16.2626M36.3125 40L36.3127 34.29C36.3127 32.3809 37.6836 30.8334 39.375 30.8334V20.0617C39.375 20.0617 37.0781 18.3334 33.25 18.3334C29.4219 18.3334 27.125 20.0619 27.125 20.0619V30.8334C28.8166 30.8334 30.1877 32.3812 30.1877 34.2904V39.9999M9.3625 7.50004C9.3625 7.50004 6.5625 5.83337 6.5625 3.75004C6.5625 2.13921 7.93363 0.833374 9.625 0.833374C11.3164 0.833374 12.6799 2.13921 12.6799 3.75004C12.6799 5.83337 9.8875 7.50004 9.8875 7.50004H9.3625ZM21.6125 7.50004C21.6125 7.50004 18.8125 5.83337 18.8125 3.75004C18.8125 2.13921 20.1836 0.833374 21.875 0.833374C23.5664 0.833374 24.93 2.13921 24.93 3.75004C24.93 5.83337 22.1375 7.50004 22.1375 7.50004H21.6125ZM33.0279 15C33.0279 15 30.625 13.5417 30.625 11.7188C30.625 10.3093 31.8017 9.16671 33.2533 9.16671C34.7048 9.16671 35.875 10.3093 35.875 11.7188C35.875 13.5417 33.4786 15 33.4786 15H33.0279Z" stroke="black" stroke-width="2.64538"/>
</g>
<defs>
<clipPath id="clip0_30_2364">
<rect width="42" height="40" fill="white"/>
</clipPath>
</defs>
</svg>
