<svg width="45" height="45" viewBox="0 0 45 45" fill="none" xmlns="http://www.w3.org/2000/svg">
<path d="M14.0214 34.0286C14.2911 35.5584 13.2697 37.017 11.74 37.2868C10.2103 37.5566 8.75156 36.5351 8.48183 35.0055M30.9801 30.7868C31.2499 32.3164 32.7086 33.3379 34.2383 33.0681C35.7681 32.7983 36.7894 31.3397 36.5197 29.8099M15 22.0455V8.69318M30 19.2825V5.96591M43.0684 17.6472C43.104 16.7531 43.125 15.8103 43.125 14.8295C43.125 8.26704 42.1875 3.75 42.1875 3.75L2.8125 10.9091C2.8125 10.9091 1.875 15.767 1.875 22.3296C1.875 23.3104 1.89594 24.2454 1.93157 25.1267M43.0684 17.6472C42.8657 22.7357 42.1875 26.25 42.1875 26.25L2.8125 33.4091C2.8125 33.4091 2.13429 30.1414 1.93157 25.1267M43.0684 17.6472C23.0891 19.4702 3.12746 24.804 1.93157 25.1267M43.125 35.625L1.875 43.125" stroke="black" stroke-width="2.64538"/>
</svg>
